<svg width="24" height="25" viewBox="0 0 24 25" fill="none" xmlns="http://www.w3.org/2000/svg">
<path fill-rule="evenodd" clip-rule="evenodd" d="M3.5 5.25C3.36193 5.25 3.25 5.36193 3.25 5.5V19.5C3.25 19.6381 3.36193 19.75 3.5 19.75H20.5C20.6381 19.75 20.75 19.6381 20.75 19.5V5.5C20.75 5.36193 20.6381 5.25 20.5 5.25H3.5ZM1.75 5.5C1.75 4.5335 2.5335 3.75 3.5 3.75H20.5C21.4665 3.75 22.25 4.5335 22.25 5.5V19.5C22.25 20.4665 21.4665 21.25 20.5 21.25H3.5C2.5335 21.25 1.75 20.4665 1.75 19.5V5.5Z" fill="#C70548"/>
<path fill-rule="evenodd" clip-rule="evenodd" d="M5.75 8.75C5.75 7.92157 6.42157 7.25 7.25 7.25C8.07843 7.25 8.75 7.92157 8.75 8.75C8.75 9.57843 8.07843 10.25 7.25 10.25C6.42157 10.25 5.75 9.57843 5.75 8.75Z" fill="#C70548"/>
<path fill-rule="evenodd" clip-rule="evenodd" d="M12.4306 10.5119C12.6896 10.2097 13.1395 10.1625 13.4556 10.4042L21.9556 16.9042C22.1412 17.0461 22.25 17.2664 22.25 17.5V19.5C22.25 20.4665 21.4665 21.25 20.5 21.25H3.5C2.5335 21.25 1.75 20.4665 1.75 19.5V17.5C1.75 17.3011 1.82902 17.1103 1.96967 16.9697L6.96967 11.9697C7.2399 11.6994 7.6701 11.6756 7.96852 11.9143L9.90239 13.4614L12.4306 10.5119ZM13.1078 12.0266L10.5694 14.9881C10.3063 15.2951 9.8472 15.3382 9.53148 15.0856L7.55566 13.505L3.25 17.8107V19.5C3.25 19.6381 3.36193 19.75 3.5 19.75H20.5C20.6381 19.75 20.75 19.6381 20.75 19.5V17.8706L13.1078 12.0266Z" fill="#C70548"/>
</svg>
