<svg width="22" height="19" viewBox="0 0 22 19" fill="none" xmlns="http://www.w3.org/2000/svg">
<g id="Group">
<g id="Group_2">
<path id="Vector (Stroke)" fill-rule="evenodd" clip-rule="evenodd" d="M2.5 2.25C2.36193 2.25 2.25 2.36193 2.25 2.5V16.5C2.25 16.6381 2.36193 16.75 2.5 16.75H19.5C19.6381 16.75 19.75 16.6381 19.75 16.5V2.5C19.75 2.36193 19.6381 2.25 19.5 2.25H2.5ZM0.75 2.5C0.75 1.5335 1.5335 0.75 2.5 0.75H19.5C20.4665 0.75 21.25 1.5335 21.25 2.5V16.5C21.25 17.4665 20.4665 18.25 19.5 18.25H2.5C1.5335 18.25 0.75 17.4665 0.75 16.5V2.5Z" fill="#1C1A46"/>
<path id="Vector (Stroke)_2" fill-rule="evenodd" clip-rule="evenodd" d="M4.75 5.75C4.75 4.92157 5.42157 4.25 6.25 4.25C7.07843 4.25 7.75 4.92157 7.75 5.75C7.75 6.57843 7.07843 7.25 6.25 7.25C5.42157 7.25 4.75 6.57843 4.75 5.75Z" fill="#1C1A46"/>
<path id="Vector (Stroke)_3" fill-rule="evenodd" clip-rule="evenodd" d="M11.4306 7.5119C11.6896 7.20974 12.1395 7.16248 12.4556 7.40422L20.9556 13.9042C21.1412 14.0461 21.25 14.2664 21.25 14.5V16.5C21.25 17.4665 20.4665 18.25 19.5 18.25H2.5C1.5335 18.25 0.75 17.4665 0.75 16.5V14.5C0.75 14.3011 0.829018 14.1103 0.96967 13.9697L5.96967 8.96966C6.2399 8.69943 6.6701 8.6756 6.96852 8.91434L8.90239 10.4614L11.4306 7.5119ZM12.1078 9.02662L9.56944 11.9881C9.30631 12.2951 8.8472 12.3382 8.53148 12.0856L6.55566 10.505L2.25 14.8107V16.5C2.25 16.6381 2.36193 16.75 2.5 16.75H19.5C19.6381 16.75 19.75 16.6381 19.75 16.5V14.8706L12.1078 9.02662Z" fill="#1C1A46"/>
</g>
</g>
</svg>
