<svg width="18" height="22" viewBox="0 0 18 22" fill="none" xmlns="http://www.w3.org/2000/svg">
<path d="M17.1818 3.63649H13.0909V2.81831C13.0909 1.46504 11.9896 0.36377 10.6364 0.36377H7.36364C6.01036 0.36377 4.90909 1.46504 4.90909 2.81831V3.63649H0.818182C0.365807 3.63649 0 4.0023 0 4.45467C0 4.90705 0.365807 5.27285 0.818182 5.27285H2.45455V19.1819C2.45455 20.5352 3.55582 21.6365 4.90909 21.6365H13.0909C14.4442 21.6365 15.5455 20.5352 15.5455 19.1819V5.27285H17.1818C17.6342 5.27285 18 4.90705 18 4.45467C18 4.0023 17.6342 3.63649 17.1818 3.63649ZM6.54545 2.81831C6.54545 2.36667 6.91199 2.00013 7.36364 2.00013H10.6364C11.088 2.00013 11.4545 2.36667 11.4545 2.81831V3.63649H6.54545V2.81831ZM13.9091 19.1819C13.9091 19.6336 13.5426 20.0001 13.0909 20.0001H4.90909C4.45745 20.0001 4.09091 19.6336 4.09091 19.1819V5.27285H13.9091V19.1819Z" fill="currentColor"/>
<path d="M6.95453 8.54541C6.50216 8.54541 6.13635 8.91122 6.13635 9.36359V15.909C6.13635 16.3614 6.50216 16.7272 6.95453 16.7272C7.40691 16.7272 7.77272 16.3614 7.77272 15.909V9.36359C7.77272 8.91122 7.40691 8.54541 6.95453 8.54541Z" fill="currentColor"/>
<path d="M11.0455 8.54541C10.5931 8.54541 10.2273 8.91122 10.2273 9.36359V15.909C10.2273 16.3614 10.5931 16.7272 11.0455 16.7272C11.4979 16.7272 11.8637 16.3614 11.8637 15.909V9.36359C11.8637 8.91122 11.4979 8.54541 11.0455 8.54541Z" fill="currentColor"/>
</svg>
